<?xml version="1.0" encoding="UTF-8"?>
<!DOCTYPE svg PUBLIC "-//W3C//DTD SVG 1.1//EN" "http://www.w3.org/Graphics/SVG/1.1/DTD/svg11.dtd">
<svg xmlns="http://www.w3.org/2000/svg" version="1.1" width="2369px" height="896px" style="shape-rendering:geometricPrecision; text-rendering:geometricPrecision; image-rendering:optimizeQuality; fill-rule:evenodd; clip-rule:evenodd" xmlns:xlink="http://www.w3.org/1999/xlink">
<g><path style="opacity:1" fill="#000000" d="M 563.5,-0.5 C 564.167,-0.5 564.833,-0.5 565.5,-0.5C 566.828,0.507165 567.828,1.8405 568.5,3.5C 566.35,6.15061 564.017,8.65061 561.5,11C 521.833,35.6233 480.5,57.29 437.5,76C 429.673,79.2975 421.673,79.9642 413.5,78C 406.696,73.7889 403.363,67.6222 403.5,59.5C 404.485,42.9225 406.985,26.5891 411,10.5C 412.011,9.66337 413.178,9.33003 414.5,9.5C 415.311,26.1474 416.144,42.814 417,59.5C 417.68,61.513 419.013,62.8464 421,63.5C 426.977,61.7299 432.81,59.5632 438.5,57C 472.531,40.3175 506.531,23.6509 540.5,7C 548.126,3.95706 555.793,1.45706 563.5,-0.5 Z"/></g>
<g><path style="opacity:1" fill="#000000" d="M 2368.5,374.5 C 2368.5,375.5 2368.5,376.5 2368.5,377.5C 2347.02,378.301 2325.52,378.968 2304,379.5C 2273.5,378.282 2243,378.282 2212.5,379.5C 2169.2,445.302 2125.7,510.969 2082,576.5C 2047.58,631.669 2012.92,686.669 1978,741.5C 1973.95,746.427 1969.78,751.26 1965.5,756C 1959.89,757.706 1956.89,755.706 1956.5,750C 1956.87,746.237 1958.03,742.737 1960,739.5C 1974.52,715.781 1990.52,693.114 2008,671.5C 2072.65,581.568 2133.31,488.902 2190,393.5C 2193.15,388.902 2194.81,383.902 2195,378.5C 2158.19,379.157 2121.36,381.324 2084.5,385C 2076.74,385.484 2069.41,387.484 2062.5,391C 2054,396.167 2045.5,401.333 2037,406.5C 2034.66,402.069 2035.49,398.235 2039.5,395C 2052.17,385.665 2066.17,378.998 2081.5,375C 2094.48,373.146 2107.48,371.48 2120.5,370C 2149.17,369.118 2177.84,368.118 2206.5,367C 2236.29,319.918 2265.46,272.418 2294,224.5C 2307.56,201.049 2319.23,176.716 2329,151.5C 2332.19,142.477 2332.19,133.477 2329,124.5C 2327.88,122.376 2326.38,120.543 2324.5,119C 2302.32,110.463 2279.32,105.963 2255.5,105.5C 2210.77,108.14 2166.1,111.64 2121.5,116C 2101.83,116.394 2082.16,116.894 2062.5,117.5C 2047.55,117.793 2032.88,115.96 2018.5,112C 2013.6,109.177 2013.27,105.843 2017.5,102C 2019.5,101.333 2021.5,101.333 2023.5,102C 2027.03,103.466 2030.7,104.466 2034.5,105C 2057.16,106.81 2079.83,106.81 2102.5,105C 2133.52,102.609 2164.52,99.9425 2195.5,97C 2231.85,94.0699 2268.18,94.0699 2304.5,97C 2315.24,98.3578 2325.24,101.691 2334.5,107C 2343.65,115.808 2347.98,126.642 2347.5,139.5C 2347.25,144.524 2346.75,149.524 2346,154.5C 2341.39,165.388 2337.06,176.388 2333,187.5C 2318.53,215.607 2302.87,242.94 2286,269.5C 2265.37,300.598 2244.87,331.764 2224.5,363C 2224.64,363.772 2224.98,364.439 2225.5,365C 2226.83,365.333 2228.17,365.667 2229.5,366C 2259.5,366.333 2289.5,366.667 2319.5,367C 2334.35,367.193 2349.02,368.86 2363.5,372C 2365.19,372.847 2366.86,373.68 2368.5,374.5 Z"/></g>
<g><path style="opacity:1" fill="#000000" d="M 1802.5,136.5 C 1807.7,136.562 1808.87,138.896 1806,143.5C 1798.41,155.668 1791.08,168.001 1784,180.5C 1774.67,203.833 1765.33,227.167 1756,250.5C 1733.07,298.688 1712.07,347.688 1693,397.5C 1692.18,400.117 1691.68,402.784 1691.5,405.5C 1692.55,405.649 1693.55,405.483 1694.5,405C 1720.72,384.382 1746.39,363.048 1771.5,341C 1782.17,333 1792.83,325 1803.5,317C 1808.36,313.822 1813.52,311.322 1819,309.5C 1828.65,312.473 1831.65,318.806 1828,328.5C 1815.57,353.251 1801.9,377.251 1787,400.5C 1781.14,411.392 1775.97,422.559 1771.5,434C 1772.17,435 1772.83,436 1773.5,437C 1782.04,437.351 1790.37,438.684 1798.5,441C 1801.25,444.012 1800.92,446.679 1797.5,449C 1785.07,452.586 1772.4,453.919 1759.5,453C 1754.15,448.324 1751.49,442.324 1751.5,435C 1753.54,423.404 1757.71,412.57 1764,402.5C 1778.88,378.566 1793.38,354.399 1807.5,330C 1807.17,329.5 1806.83,329 1806.5,328.5C 1779.76,350.066 1753.76,372.566 1728.5,396C 1716.83,405 1705.17,414 1693.5,423C 1689.44,425.696 1685.11,427.863 1680.5,429.5C 1676.04,428.703 1673.7,426.036 1673.5,421.5C 1676.62,408.629 1680.46,395.962 1685,383.5C 1711.89,319.503 1739.56,255.836 1768,192.5C 1774.67,179.833 1781.33,167.167 1788,154.5C 1792.62,148.208 1797.46,142.208 1802.5,136.5 Z"/></g>
<g><path style="opacity:1" fill="#000000" d="M 1461.5,146.5 C 1465.45,146.488 1467.11,148.488 1466.5,152.5C 1465.18,152.33 1464.01,152.663 1463,153.5C 1447.06,187.714 1431.39,222.047 1416,256.5C 1390.14,306.888 1364.81,357.555 1340,408.5C 1337.83,414.333 1335.67,420.167 1333.5,426C 1333.73,427.732 1334.73,428.566 1336.5,428.5C 1338.83,427.67 1341.16,426.837 1343.5,426C 1389.09,401.401 1434.42,376.401 1479.5,351C 1488.88,346.151 1498.55,341.984 1508.5,338.5C 1510.61,338.775 1511.94,339.942 1512.5,342C 1511.47,344.56 1510.3,347.06 1509,349.5C 1491.83,369.333 1473.33,387.833 1453.5,405C 1450.69,408.647 1447.69,412.147 1444.5,415.5C 1444.83,415.833 1445.17,416.167 1445.5,416.5C 1475.62,402.606 1505.62,388.44 1535.5,374C 1540.33,371.502 1545.33,369.835 1550.5,369C 1552.5,371.841 1553,375.007 1552,378.5C 1538.32,405.888 1521.65,431.222 1502,454.5C 1500.49,453.743 1499.15,452.743 1498,451.5C 1497.5,439.313 1500.5,427.98 1507,417.5C 1511.96,409.75 1516.79,401.917 1521.5,394C 1521,393.833 1520.5,393.667 1520,393.5C 1504.28,401.612 1488.78,410.112 1473.5,419C 1455.69,429.155 1436.86,436.655 1417,441.5C 1409,438.819 1406.33,433.485 1409,425.5C 1417.42,413.742 1427.26,403.242 1438.5,394C 1450.79,384.041 1462.79,373.707 1474.5,363C 1474.17,362.833 1473.83,362.667 1473.5,362.5C 1445.33,379.75 1417.33,397.25 1389.5,415C 1372.31,425.597 1354.31,434.597 1335.5,442C 1329.75,443.723 1325.25,442.223 1322,437.5C 1321.06,433.886 1320.39,430.219 1320,426.5C 1319.28,425.941 1318.44,425.608 1317.5,425.5C 1287.71,444.058 1256.04,458.891 1222.5,470C 1218.91,470.789 1215.41,470.622 1212,469.5C 1211.33,467.5 1211.33,465.5 1212,463.5C 1238.5,447.329 1266,432.829 1294.5,420C 1297.83,418 1301.17,416 1304.5,414C 1306.53,412.604 1306.86,410.938 1305.5,409C 1303.5,408.667 1301.5,408.333 1299.5,408C 1272.84,408.363 1246.17,408.363 1219.5,408C 1213.03,407.836 1206.7,406.836 1200.5,405C 1196.71,402.75 1194.71,399.417 1194.5,395C 1195.02,390.451 1196.52,386.285 1199,382.5C 1206.58,372.918 1215.41,364.752 1225.5,358C 1238.31,350.263 1251.64,343.597 1265.5,338C 1274.57,335.066 1283.57,335.066 1292.5,338C 1293.83,339.667 1293.83,341.333 1292.5,343C 1279.53,342.101 1267.53,345.101 1256.5,352C 1238.27,362.886 1221.77,376.052 1207,391.5C 1206.44,394.298 1207.61,396.131 1210.5,397C 1216.45,398.073 1222.45,398.74 1228.5,399C 1262.42,400.262 1296.42,400.262 1330.5,399C 1371.53,318.767 1411.37,237.934 1450,156.5C 1452.79,151.866 1456.63,148.533 1461.5,146.5 Z"/></g>
<g><path style="opacity:1" fill="#000000" d="M 8.5,895.5 C 6.5,895.5 4.5,895.5 2.5,895.5C 1.34118,894.26 0.341179,892.926 -0.5,891.5C -0.5,890.167 -0.5,888.833 -0.5,887.5C 6.17739,876.982 14.5107,867.815 24.5,860C 96.3985,805.047 170.398,753.047 246.5,704C 269.833,686.667 293.167,669.333 316.5,652C 336.876,634.622 357.542,617.622 378.5,601C 392.333,587.167 406.167,573.333 420,559.5C 427.618,548.881 435.618,538.548 444,528.5C 464.142,502.41 471.809,473.076 467,440.5C 456.015,405.513 432.515,384.679 396.5,378C 347.8,375.035 299.134,371.702 250.5,368C 243.462,363.262 239.795,356.596 239.5,348C 239.946,344.825 240.446,341.658 241,338.5C 244,334.167 247,329.833 250,325.5C 276.031,297.795 304.197,272.628 334.5,250C 352.34,238.247 370.006,226.247 387.5,214C 408.58,201.932 429.913,190.265 451.5,179C 471.863,168.99 493.196,161.99 515.5,158C 525.975,156.904 536.308,157.571 546.5,160C 547.701,160.903 548.535,162.069 549,163.5C 550.261,175.962 547.094,187.128 539.5,197C 536.623,199.286 535.289,198.453 535.5,194.5C 536.851,187.095 538.518,179.762 540.5,172.5C 540.43,171.228 540.097,170.062 539.5,169C 530.384,168.764 521.384,169.764 512.5,172C 498.311,175.596 484.644,180.596 471.5,187C 417.702,212.714 366.702,242.714 318.5,277C 300.739,291.423 283.573,306.59 267,322.5C 262.952,326.88 259.285,331.546 256,336.5C 254.463,340.244 254.463,343.911 256,347.5C 258.289,352.413 262.123,355.579 267.5,357C 299.109,359.584 330.775,361.251 362.5,362C 381.096,363.449 399.43,366.449 417.5,371C 464.814,387.781 486.981,421.281 484,471.5C 482.588,479.893 480.921,488.226 479,496.5C 468.103,521.975 453.436,544.975 435,565.5C 425.804,575.03 416.304,584.197 406.5,593C 384.211,610.287 362.211,627.954 340.5,646C 258.277,703.557 176.61,761.891 95.5,821C 74.1667,838 52.8333,855 31.5,872C 24.3011,880.365 16.6344,888.198 8.5,895.5 Z"/></g>
<g><path style="opacity:1" fill="#010101" d="M 1593.5,237.5 C 1594.5,237.5 1595.5,237.5 1596.5,237.5C 1597.95,243.391 1597.28,249.057 1594.5,254.5C 1591.86,257.373 1589.7,257.039 1588,253.5C 1586.72,247.074 1588.55,241.741 1593.5,237.5 Z"/></g>
<g><path style="opacity:1" fill="#000000" d="M 760.5,264.5 C 784.321,264.468 807.987,266.301 831.5,270C 832.925,271.714 832.592,273.047 830.5,274C 811.538,276.746 792.538,277.079 773.5,275C 767.563,274.37 762.896,271.703 759.5,267C 759.743,266.098 760.077,265.265 760.5,264.5 Z"/></g>
<g><path style="opacity:1" fill="#000000" d="M 1066.5,326.5 C 1067.83,326.5 1069.17,326.5 1070.5,326.5C 1062.1,362.53 1050.6,397.53 1036,431.5C 1034.68,434.43 1034.02,437.43 1034,440.5C 1058.46,420.375 1082.63,399.875 1106.5,379C 1116.45,372.051 1126.12,364.717 1135.5,357C 1142.83,352.333 1150.17,347.667 1157.5,343C 1161.17,341.497 1164.84,339.997 1168.5,338.5C 1173.72,339.895 1176.06,343.395 1175.5,349C 1174.92,352.564 1174.09,356.064 1173,359.5C 1157.87,391.768 1140.21,422.434 1120,451.5C 1117.2,455.299 1114.04,458.799 1110.5,462C 1106.93,462.433 1105.27,460.767 1105.5,457C 1106.03,452.012 1107.2,447.178 1109,442.5C 1122.22,415.06 1137.22,388.727 1154,363.5C 1155.37,360.588 1156.87,357.754 1158.5,355C 1157.83,354.833 1157.17,354.667 1156.5,354.5C 1149.7,358.739 1143.03,363.239 1136.5,368C 1112.12,389.869 1088.12,412.202 1064.5,435C 1052.54,443.953 1040.88,453.287 1029.5,463C 1012.24,472.742 1006.74,468.242 1013,449.5C 1029.38,413.067 1044.38,376.067 1058,338.5C 1059.64,333.515 1062.47,329.515 1066.5,326.5 Z"/></g>
<g><path style="opacity:1" fill="#000000" d="M 820.5,335.5 C 825.179,335.334 829.845,335.501 834.5,336C 837.384,337.037 838.05,338.871 836.5,341.5C 825.276,342.297 814.943,345.797 805.5,352C 785.226,365.276 765.226,378.943 745.5,393C 743.316,395.016 741.316,397.183 739.5,399.5C 739.709,400.086 740.043,400.586 740.5,401C 747.308,401.848 754.141,402.348 761,402.5C 782.16,401.466 803.327,401.299 824.5,402C 838.09,402.261 843.59,409.094 841,422.5C 837.654,432.191 832.988,441.191 827,449.5C 809.353,472.245 787.186,489.078 760.5,500C 741.855,505.873 722.855,507.873 703.5,506C 700.538,502.512 701.205,499.845 705.5,498C 723.424,493.136 741.091,487.47 758.5,481C 785.535,466.969 808.701,448.136 828,424.5C 830.351,421.399 830.851,418.066 829.5,414.5C 822.036,412.145 814.369,411.145 806.5,411.5C 779.506,412.551 752.506,412.717 725.5,412C 720.462,408.34 719.629,403.84 723,398.5C 726.799,393.699 730.966,389.199 735.5,385C 761.434,364.367 789.768,347.867 820.5,335.5 Z"/></g>
<g><path style="opacity:1" fill="#000000" d="M 623.5,346.5 C 628.023,346.345 631.189,348.345 633,352.5C 633.667,353.833 633.667,355.167 633,356.5C 616.407,404.12 597.574,450.787 576.5,496.5C 573.26,494.636 571.594,491.803 571.5,488C 574.533,469.033 579.367,450.533 586,432.5C 593,415.5 600,398.5 607,381.5C 609.769,374.758 611.435,367.758 612,360.5C 614.668,354.803 618.502,350.136 623.5,346.5 Z"/></g>
<g><path style="opacity:1" fill="#000000" d="M 964.5,350.5 C 970.334,349.577 974,351.91 975.5,357.5C 973.25,361.668 970.75,365.668 968,369.5C 958.164,379.669 947.997,389.503 937.5,399C 918.318,413.759 899.318,428.759 880.5,444C 874.297,449.485 874.131,455.319 880,461.5C 882.469,463.652 885.302,465.152 888.5,466C 904.156,465.589 919.822,465.589 935.5,466C 936.535,467.507 936.368,469.007 935,470.5C 926.347,477.132 916.514,480.965 905.5,482C 887.591,487.92 873.758,483.087 864,467.5C 857.181,453.606 857.848,439.939 866,426.5C 872.095,418.401 878.928,410.901 886.5,404C 905.893,386.141 926.893,370.475 949.5,357C 954.6,354.776 959.6,352.61 964.5,350.5 Z M 950.5,371.5 C 951.573,372.251 951.74,373.251 951,374.5C 934.327,390.515 916.493,405.015 897.5,418C 891.795,420.532 890.961,419.365 895,414.5C 912.828,399.156 931.328,384.823 950.5,371.5 Z"/></g>
</svg>
